<?xml version="1.0" encoding="utf-8"?>
<!-- Generator: Adobe Illustrator 24.1.0, SVG Export Plug-In . SVG Version: 6.00 Build 0)  -->
<svg version="1.1" id="Layer_1" xmlns="http://www.w3.org/2000/svg" x="0px"
     y="0px"
     viewBox="0 -30 500 500" style="enable-background:new 0 0 500 500;" xml:space="preserve">
  <rect y="-30" width="100%" height="100%" rx="50%" fill="#50AF95"/>

    <style type="text/css">.st1{fill-rule:evenodd;clip-rule:evenodd;fill:#FFFFFF;}</style>
    <path class="st1" d="M281.6,245.8L281.6,245.8c-1.8,0.1-10.9,0.7-31.3,0.7c-16.2,0-27.7-0.5-31.7-0.7l0,0
	c-62.6-2.8-109.4-13.7-109.4-26.7c0-13.1,46.7-23.9,109.4-26.7V235c4.1,0.3,15.8,1,32,1c19.4,0,29.2-0.8,30.9-1v-42.6
	c62.5,2.8,109.1,13.7,109.1,26.7S344.1,243,281.6,245.8L281.6,245.8L281.6,245.8z M281.6,188v-38.1h87.2V91.8H131.4v58.1h87.2V188
	c-70.9,3.3-124.2,17.3-124.2,34.1s53.3,30.8,124.2,34.1v122.1h63V256.2c70.7-3.3,123.9-17.3,123.9-34.1S352.4,191.3,281.6,188
	L281.6,188L281.6,188z M281.6,188L281.6,188z"/>
</svg>
